<svg
  xmlns="http://www.w3.org/2000/svg"
  viewBox="0 0 122.88 92.12"
  class="w-8 h-8 text-black"
  fill="currentColor"
>
  <path d="M8.36,92.12h19.54V44.67L0,23.76v60.08C0,88.42,3.78,92.12,8.36,92.12z"/>
  <path d="M94.97,92.12h19.54c4.67,0,8.36-3.78,8.36-8.36v-60L94.97,44.67V92.12z"/>
  <path d="M94.97,8.4v36.27l27.91-20.91V12.58c0-10.37-11.82-16.25-20.11-10.05L94.97,8.4z"/>
  <polygon points="27.9,44.67 27.9,8.4 61.44,33.57 94.97,8.4 94.97,44.67 61.44,69.76"/>
  <path d="M0,12.58v11.18l27.91,20.91V8.4l-7.8-5.87C11.82-3.66,0,2.29,0,12.58z"/>
</svg>